<?xml version="1.0" encoding="UTF-8" standalone="no"?>
<svg
   xmlns:dc="http://purl.org/dc/elements/1.1/"
   xmlns:cc="http://creativecommons.org/ns#"
   xmlns:rdf="http://www.w3.org/1999/02/22-rdf-syntax-ns#"
   xmlns:svg="http://www.w3.org/2000/svg"
   xmlns="http://www.w3.org/2000/svg"
   xmlns:sodipodi="http://sodipodi.sourceforge.net/DTD/sodipodi-0.dtd"
   xmlns:inkscape="http://www.inkscape.org/namespaces/inkscape"
   id="LOGO"
   viewBox="0 0 566.93 319.01999"
   version="1.1"
   sodipodi:docname="ukri.svg"
   inkscape:version="1.0.2 (e86c8708, 2021-01-15)"
   width="566.92999"
   height="319.01999">
  <metadata
     id="metadata125">
    <rdf:RDF>
      <cc:Work
         rdf:about="">
        <dc:format>image/svg+xml</dc:format>
        <dc:type
           rdf:resource="http://purl.org/dc/dcmitype/StillImage" />
        <dc:title />
      </cc:Work>
    </rdf:RDF>
  </metadata>
  <sodipodi:namedview
     pagecolor="#ffffff"
     bordercolor="#666666"
     borderopacity="1"
     objecttolerance="10"
     gridtolerance="10"
     guidetolerance="10"
     inkscape:pageopacity="0"
     inkscape:pageshadow="2"
     inkscape:window-width="1575"
     inkscape:window-height="694"
     id="namedview123"
     showgrid="false"
     inkscape:zoom="0.49438549"
     inkscape:cx="543.01241"
     inkscape:cy="249.70186"
     inkscape:window-x="0"
     inkscape:window-y="25"
     inkscape:window-maximized="0"
     inkscape:current-layer="LOGO"
     inkscape:document-rotation="0" />
  <defs
     id="defs12">
    <style
       id="style10">.cls-1{fill:#2e2d62;}.cls-2{fill:#fff;}.cls-3{fill:#003088;}.cls-4{fill:#1e5df8;}</style>
  </defs>
  <rect
     class="cls-1"
     x="0"
     y="35.560001"
     width="283.45999"
     height="283.45999"
     id="rect14" />
  <path
     class="cls-2"
     d="m 252.27,66.75 h -33.05 l -44.44,47.32 V 66.75 h -64.2 v 62.77 c 0,13.45 -10,21.26 -23.170001,21.26 -13.17,0 -23.16,-7.81 -23.16,-21.26 V 66.75 h -33.06 v 63.29 c 0,28.35 22.89,44.61 48.71,47.25 h -48.71 v 110.53 h 33.06 v -41 h 14.43 l 30.550001,41 h 143 v -22.3 h -38.71 v -65.91 h 38.75 v -29.16 l -47.38,-48.51 47.38,-48.35 z m -110.54,76.77 v 51.28 c -7,-11.88 -23.22,-17.4 -47.240001,-17.46 C 115.96,175.11 135.74,163.52 141.73,143.52 Z m -77.480001,56.14 h 30.24 c 12.430001,0 17.470001,4.82 17.470001,12.39 0,7.57 -5,12.47 -17.470001,12.47 h -30.24 z M 180.47,265.52 h -38.74 v 15.49 l -27.27,-35.76 c 20.76,-3.82 31.49,-14.56 31.49,-33.25 a 36.73,36.73 0 0 0 -2,-12.39 h 36.48 z m 38.75,-88.21 h -44.44 v -47.47 z"
     id="path16" />
  <polygon
     class="cls-3"
     points="572.04,200.6 651.97,200.6 651.97,85.05 395.46,85.05 572.04,317.09 "
     id="polygon44"
     transform="translate(-85.040001,-49.48)" />
  <polygon
     class="cls-4"
     points="395.46,85.05 368.5,49.48 368.5,85.05 368.5,368.5 651.97,368.5 651.97,200.6 572.04,200.6 572.04,317.09 "
     id="polygon46"
     transform="translate(-85.040001,-49.48)" />
</svg>
